<mxfile host="app.diagrams.net" modified="2021-03-19T22:03:55.078Z" agent="5.0 (Windows NT 10.0; Win64; x64) AppleWebKit/537.36 (KHTML, like Gecko) Chrome/89.0.4389.90 Safari/537.36" etag="tuYlcsQ8iu8rFOq5ttEN" version="14.4.9" type="github">
  <diagram id="JO9e_jijff8iMu1PnW-a" name="Page-1">
    <mxGraphModel dx="934" dy="459" grid="1" gridSize="10" guides="1" tooltips="1" connect="1" arrows="1" fold="1" page="1" pageScale="1" pageWidth="850" pageHeight="1100" math="0" shadow="0">
      <root>
        <mxCell id="0" />
        <mxCell id="1" parent="0" />
        <mxCell id="ENcY2SOkD-7cJ1yRTyBe-1" value="" style="rounded=0;whiteSpace=wrap;html=1;fillColor=#dae8fc;strokeColor=#6c8ebf;" parent="1" vertex="1">
          <mxGeometry x="120" y="200" width="120" height="160" as="geometry" />
        </mxCell>
        <mxCell id="ENcY2SOkD-7cJ1yRTyBe-2" value="Measurements" style="text;html=1;align=center;verticalAlign=middle;resizable=0;points=[];autosize=1;" parent="1" vertex="1">
          <mxGeometry x="135" y="210" width="90" height="20" as="geometry" />
        </mxCell>
        <mxCell id="ENcY2SOkD-7cJ1yRTyBe-3" value="&lt;font style=&quot;font-size: 8px&quot;&gt;Previous&lt;/font&gt;" style="rounded=0;whiteSpace=wrap;html=1;fontSize=10;fillColor=#d5e8d4;strokeColor=#82b366;" parent="1" vertex="1">
          <mxGeometry x="135" y="330" width="40" height="20" as="geometry" />
        </mxCell>
        <mxCell id="ENcY2SOkD-7cJ1yRTyBe-4" value="&lt;font style=&quot;font-size: 8px&quot;&gt;Next&lt;/font&gt;" style="rounded=0;whiteSpace=wrap;html=1;fontSize=10;fillColor=#d5e8d4;strokeColor=#82b366;" parent="1" vertex="1">
          <mxGeometry x="185" y="330" width="40" height="20" as="geometry" />
        </mxCell>
        <mxCell id="ENcY2SOkD-7cJ1yRTyBe-5" value="&lt;font style=&quot;font-size: 8px&quot;&gt;State of Charge:&amp;nbsp; &amp;nbsp; &amp;nbsp;XXXXX&lt;br&gt;Temperature:&amp;nbsp; &amp;nbsp; &amp;nbsp; &amp;nbsp; &amp;nbsp; XXXXX&lt;br&gt;HV Current:&amp;nbsp; &amp;nbsp; &amp;nbsp; &amp;nbsp; &amp;nbsp; &amp;nbsp; XXXXX&lt;br&gt;HV Voltage:&amp;nbsp; &amp;nbsp; &amp;nbsp; &amp;nbsp; &amp;nbsp; &amp;nbsp; XXXXX&lt;br&gt;HVIL Status:&amp;nbsp; &amp;nbsp; &amp;nbsp; &amp;nbsp; &amp;nbsp; &amp;nbsp;XXXXX&lt;br&gt;&lt;/font&gt;" style="rounded=0;whiteSpace=wrap;html=1;fontSize=10;align=left;horizontal=1;verticalAlign=top;fillColor=#dae8fc;strokeColor=none;" parent="1" vertex="1">
          <mxGeometry x="130" y="240" width="100" height="80" as="geometry" />
        </mxCell>
        <mxCell id="ENcY2SOkD-7cJ1yRTyBe-6" value="" style="rounded=0;whiteSpace=wrap;html=1;fillColor=#dae8fc;strokeColor=#6c8ebf;" parent="1" vertex="1">
          <mxGeometry x="270" y="200" width="120" height="160" as="geometry" />
        </mxCell>
        <mxCell id="ENcY2SOkD-7cJ1yRTyBe-7" value="Alarm" style="text;html=1;align=center;verticalAlign=middle;resizable=0;points=[];autosize=1;" parent="1" vertex="1">
          <mxGeometry x="305" y="210" width="50" height="20" as="geometry" />
        </mxCell>
        <mxCell id="ENcY2SOkD-7cJ1yRTyBe-8" value="&lt;font style=&quot;font-size: 8px&quot;&gt;Previous&lt;/font&gt;" style="rounded=0;whiteSpace=wrap;html=1;fontSize=10;fillColor=#d5e8d4;strokeColor=#82b366;" parent="1" vertex="1">
          <mxGeometry x="285" y="330" width="40" height="20" as="geometry" />
        </mxCell>
        <mxCell id="ENcY2SOkD-7cJ1yRTyBe-9" value="&lt;font style=&quot;font-size: 8px&quot;&gt;Next&lt;/font&gt;" style="rounded=0;whiteSpace=wrap;html=1;fontSize=10;fillColor=#d5e8d4;strokeColor=#82b366;" parent="1" vertex="1">
          <mxGeometry x="335" y="330" width="40" height="20" as="geometry" />
        </mxCell>
        <mxCell id="ENcY2SOkD-7cJ1yRTyBe-10" value="&lt;font style=&quot;font-size: 8px&quot;&gt;HVIA:&amp;nbsp; &amp;nbsp; &amp;nbsp; &amp;nbsp; &amp;nbsp; &amp;nbsp; &amp;nbsp; &amp;nbsp; &amp;nbsp; &amp;nbsp; &amp;nbsp; &amp;lt;state&amp;gt;&lt;br&gt;OC:&amp;nbsp; &amp;nbsp; &amp;nbsp; &amp;nbsp; &amp;nbsp; &amp;nbsp; &amp;nbsp; &amp;nbsp; &amp;nbsp; &amp;nbsp; &amp;nbsp; &amp;nbsp; &amp;nbsp;&amp;lt;state&amp;gt; HVOR:&amp;nbsp; &amp;nbsp; &amp;nbsp; &amp;nbsp; &amp;nbsp; &amp;nbsp; &amp;nbsp; &amp;nbsp; &amp;nbsp; &amp;nbsp; &amp;lt;state&amp;gt;&lt;br&gt;&lt;/font&gt;" style="rounded=0;whiteSpace=wrap;html=1;fontSize=10;align=left;horizontal=1;verticalAlign=top;fillColor=#dae8fc;strokeColor=none;" parent="1" vertex="1">
          <mxGeometry x="280" y="240" width="100" height="80" as="geometry" />
        </mxCell>
        <mxCell id="ENcY2SOkD-7cJ1yRTyBe-11" value="" style="rounded=0;whiteSpace=wrap;html=1;fillColor=#dae8fc;strokeColor=#6c8ebf;" parent="1" vertex="1">
          <mxGeometry x="420" y="200" width="120" height="160" as="geometry" />
        </mxCell>
        <mxCell id="ENcY2SOkD-7cJ1yRTyBe-12" value="Battery On/Off" style="text;html=1;align=center;verticalAlign=middle;resizable=0;points=[];autosize=1;" parent="1" vertex="1">
          <mxGeometry x="435" y="210" width="90" height="20" as="geometry" />
        </mxCell>
        <mxCell id="ENcY2SOkD-7cJ1yRTyBe-13" value="&lt;font style=&quot;font-size: 8px&quot;&gt;Previous&lt;/font&gt;" style="rounded=0;whiteSpace=wrap;html=1;fontSize=10;fillColor=#d5e8d4;strokeColor=#82b366;" parent="1" vertex="1">
          <mxGeometry x="435" y="330" width="40" height="20" as="geometry" />
        </mxCell>
        <mxCell id="ENcY2SOkD-7cJ1yRTyBe-14" value="&lt;font style=&quot;font-size: 8px&quot;&gt;Next&lt;/font&gt;" style="rounded=0;whiteSpace=wrap;html=1;fontSize=10;fillColor=#d5e8d4;strokeColor=#82b366;" parent="1" vertex="1">
          <mxGeometry x="485" y="330" width="40" height="20" as="geometry" />
        </mxCell>
        <mxCell id="ENcY2SOkD-7cJ1yRTyBe-15" value="&lt;font style=&quot;font-size: 10px&quot;&gt;Battery:&amp;nbsp; &amp;nbsp; &amp;nbsp; &amp;nbsp; &amp;nbsp; &amp;lt;state&amp;gt;&lt;br&gt;&lt;br&gt;&lt;/font&gt;" style="rounded=0;whiteSpace=wrap;html=1;fontSize=10;align=left;horizontal=1;verticalAlign=top;fillColor=#dae8fc;strokeColor=none;" parent="1" vertex="1">
          <mxGeometry x="430" y="240" width="100" height="20" as="geometry" />
        </mxCell>
        <mxCell id="ENcY2SOkD-7cJ1yRTyBe-16" value="&lt;font style=&quot;font-size: 10px&quot;&gt;Toggle&lt;/font&gt;" style="rounded=0;whiteSpace=wrap;html=1;fontSize=10;fillColor=#e1d5e7;strokeColor=#9673a6;" parent="1" vertex="1">
          <mxGeometry x="460" y="280" width="40" height="20" as="geometry" />
        </mxCell>
        <mxCell id="FEBjAYCqxVoNsIwqU9Zc-2" value="&lt;font style=&quot;font-size: 8px&quot;&gt;Previous&lt;/font&gt;" style="rounded=0;whiteSpace=wrap;html=1;fontSize=10;fillColor=#d5e8d4;strokeColor=#82b366;" parent="1" vertex="1">
          <mxGeometry x="285" y="330" width="40" height="20" as="geometry" />
        </mxCell>
        <mxCell id="FEBjAYCqxVoNsIwqU9Zc-3" value="&lt;font style=&quot;font-size: 8px&quot;&gt;Alarm Acknowledge&lt;/font&gt;" style="rounded=0;whiteSpace=wrap;html=1;fontSize=10;fillColor=#f8cecc;strokeColor=#b85450;" parent="1" vertex="1">
          <mxGeometry x="290" y="300" width="80" height="20" as="geometry" />
        </mxCell>
        <mxCell id="YxgOSVYUp_wd8PQ4mH_W-1" value="" style="rounded=0;whiteSpace=wrap;html=1;fillColor=#dae8fc;strokeColor=#6c8ebf;" parent="1" vertex="1">
          <mxGeometry x="120" y="200" width="120" height="160" as="geometry" />
        </mxCell>
        <mxCell id="YxgOSVYUp_wd8PQ4mH_W-2" value="Measurements" style="text;html=1;align=center;verticalAlign=middle;resizable=0;points=[];autosize=1;" parent="1" vertex="1">
          <mxGeometry x="135" y="210" width="90" height="20" as="geometry" />
        </mxCell>
        <mxCell id="YxgOSVYUp_wd8PQ4mH_W-3" value="&lt;font style=&quot;font-size: 8px&quot;&gt;Previous&lt;/font&gt;" style="rounded=0;whiteSpace=wrap;html=1;fontSize=10;fillColor=#d5e8d4;strokeColor=#82b366;" parent="1" vertex="1">
          <mxGeometry x="135" y="330" width="40" height="20" as="geometry" />
        </mxCell>
        <mxCell id="YxgOSVYUp_wd8PQ4mH_W-4" value="&lt;font style=&quot;font-size: 8px&quot;&gt;Next&lt;/font&gt;" style="rounded=0;whiteSpace=wrap;html=1;fontSize=10;fillColor=#d5e8d4;strokeColor=#82b366;" parent="1" vertex="1">
          <mxGeometry x="185" y="330" width="40" height="20" as="geometry" />
        </mxCell>
        <mxCell id="YxgOSVYUp_wd8PQ4mH_W-5" value="&lt;font style=&quot;font-size: 8px&quot;&gt;State of Charge:&amp;nbsp; &amp;nbsp; &amp;nbsp;XXXXX&lt;br&gt;Temperature:&amp;nbsp; &amp;nbsp; &amp;nbsp; &amp;nbsp; &amp;nbsp; XXXXX&lt;br&gt;HV Current:&amp;nbsp; &amp;nbsp; &amp;nbsp; &amp;nbsp; &amp;nbsp; &amp;nbsp; XXXXX&lt;br&gt;HV Voltage:&amp;nbsp; &amp;nbsp; &amp;nbsp; &amp;nbsp; &amp;nbsp; &amp;nbsp; XXXXX&lt;br&gt;HVIL Status:&amp;nbsp; &amp;nbsp; &amp;nbsp; &amp;nbsp; &amp;nbsp; &amp;nbsp;XXXXX&lt;br&gt;&lt;/font&gt;" style="rounded=0;whiteSpace=wrap;html=1;fontSize=10;align=left;horizontal=1;verticalAlign=top;fillColor=#dae8fc;strokeColor=none;" parent="1" vertex="1">
          <mxGeometry x="130" y="240" width="100" height="80" as="geometry" />
        </mxCell>
        <mxCell id="YxgOSVYUp_wd8PQ4mH_W-6" value="" style="rounded=0;whiteSpace=wrap;html=1;fillColor=#dae8fc;strokeColor=#6c8ebf;" parent="1" vertex="1">
          <mxGeometry x="270" y="200" width="120" height="160" as="geometry" />
        </mxCell>
        <mxCell id="YxgOSVYUp_wd8PQ4mH_W-7" value="Alarm" style="text;html=1;align=center;verticalAlign=middle;resizable=0;points=[];autosize=1;" parent="1" vertex="1">
          <mxGeometry x="305" y="210" width="50" height="20" as="geometry" />
        </mxCell>
        <mxCell id="YxgOSVYUp_wd8PQ4mH_W-8" value="&lt;font style=&quot;font-size: 8px&quot;&gt;Previous&lt;/font&gt;" style="rounded=0;whiteSpace=wrap;html=1;fontSize=10;fillColor=#d5e8d4;strokeColor=#82b366;" parent="1" vertex="1">
          <mxGeometry x="285" y="330" width="40" height="20" as="geometry" />
        </mxCell>
        <mxCell id="YxgOSVYUp_wd8PQ4mH_W-9" value="&lt;font style=&quot;font-size: 8px&quot;&gt;Next&lt;/font&gt;" style="rounded=0;whiteSpace=wrap;html=1;fontSize=10;fillColor=#d5e8d4;strokeColor=#82b366;" parent="1" vertex="1">
          <mxGeometry x="335" y="330" width="40" height="20" as="geometry" />
        </mxCell>
        <mxCell id="YxgOSVYUp_wd8PQ4mH_W-10" value="&lt;font style=&quot;font-size: 8px&quot;&gt;HVIA:&amp;nbsp; &amp;nbsp; &amp;nbsp; &amp;nbsp; &amp;nbsp; &amp;nbsp; &amp;nbsp; &amp;nbsp; &amp;nbsp; &amp;nbsp; &amp;nbsp; &amp;lt;state&amp;gt;&lt;br&gt;OC:&amp;nbsp; &amp;nbsp; &amp;nbsp; &amp;nbsp; &amp;nbsp; &amp;nbsp; &amp;nbsp; &amp;nbsp; &amp;nbsp; &amp;nbsp; &amp;nbsp; &amp;nbsp; &amp;nbsp;&amp;lt;state&amp;gt; HVOR:&amp;nbsp; &amp;nbsp; &amp;nbsp; &amp;nbsp; &amp;nbsp; &amp;nbsp; &amp;nbsp; &amp;nbsp; &amp;nbsp; &amp;nbsp; &amp;lt;state&amp;gt;&lt;br&gt;&lt;/font&gt;" style="rounded=0;whiteSpace=wrap;html=1;fontSize=10;align=left;horizontal=1;verticalAlign=top;fillColor=#dae8fc;strokeColor=none;" parent="1" vertex="1">
          <mxGeometry x="280" y="240" width="100" height="80" as="geometry" />
        </mxCell>
        <mxCell id="YxgOSVYUp_wd8PQ4mH_W-11" value="" style="rounded=0;whiteSpace=wrap;html=1;fillColor=#dae8fc;strokeColor=#6c8ebf;" parent="1" vertex="1">
          <mxGeometry x="420" y="200" width="120" height="160" as="geometry" />
        </mxCell>
        <mxCell id="YxgOSVYUp_wd8PQ4mH_W-12" value="Battery On/Off" style="text;html=1;align=center;verticalAlign=middle;resizable=0;points=[];autosize=1;" parent="1" vertex="1">
          <mxGeometry x="435" y="210" width="90" height="20" as="geometry" />
        </mxCell>
        <mxCell id="YxgOSVYUp_wd8PQ4mH_W-13" value="&lt;font style=&quot;font-size: 8px&quot;&gt;Previous&lt;/font&gt;" style="rounded=0;whiteSpace=wrap;html=1;fontSize=10;fillColor=#d5e8d4;strokeColor=#82b366;" parent="1" vertex="1">
          <mxGeometry x="435" y="330" width="40" height="20" as="geometry" />
        </mxCell>
        <mxCell id="YxgOSVYUp_wd8PQ4mH_W-14" value="&lt;font style=&quot;font-size: 8px&quot;&gt;Next&lt;/font&gt;" style="rounded=0;whiteSpace=wrap;html=1;fontSize=10;fillColor=#d5e8d4;strokeColor=#82b366;" parent="1" vertex="1">
          <mxGeometry x="485" y="330" width="40" height="20" as="geometry" />
        </mxCell>
        <mxCell id="YxgOSVYUp_wd8PQ4mH_W-15" value="&lt;font style=&quot;font-size: 10px&quot;&gt;Battery:&amp;nbsp; &amp;nbsp; &amp;nbsp; &amp;nbsp; &amp;nbsp; &amp;lt;state&amp;gt;&lt;br&gt;&lt;br&gt;&lt;/font&gt;" style="rounded=0;whiteSpace=wrap;html=1;fontSize=10;align=left;horizontal=1;verticalAlign=top;fillColor=#dae8fc;strokeColor=none;" parent="1" vertex="1">
          <mxGeometry x="430" y="240" width="100" height="20" as="geometry" />
        </mxCell>
        <mxCell id="YxgOSVYUp_wd8PQ4mH_W-16" value="&lt;font style=&quot;font-size: 10px&quot;&gt;Toggle&lt;/font&gt;" style="rounded=0;whiteSpace=wrap;html=1;fontSize=10;fillColor=#e1d5e7;strokeColor=#9673a6;" parent="1" vertex="1">
          <mxGeometry x="460" y="280" width="40" height="20" as="geometry" />
        </mxCell>
        <mxCell id="YxgOSVYUp_wd8PQ4mH_W-17" value="" style="rounded=0;whiteSpace=wrap;html=1;fillColor=#dae8fc;strokeColor=#6c8ebf;" parent="1" vertex="1">
          <mxGeometry x="570" y="200" width="120" height="160" as="geometry" />
        </mxCell>
        <mxCell id="YxgOSVYUp_wd8PQ4mH_W-18" value="Accelerometer" style="text;html=1;align=center;verticalAlign=middle;resizable=0;points=[];autosize=1;" parent="1" vertex="1">
          <mxGeometry x="580" y="210" width="100" height="20" as="geometry" />
        </mxCell>
        <mxCell id="YxgOSVYUp_wd8PQ4mH_W-19" value="&lt;font style=&quot;font-size: 8px&quot;&gt;Previous&lt;/font&gt;" style="rounded=0;whiteSpace=wrap;html=1;fontSize=10;fillColor=#d5e8d4;strokeColor=#82b366;" parent="1" vertex="1">
          <mxGeometry x="585" y="330" width="40" height="20" as="geometry" />
        </mxCell>
        <mxCell id="YxgOSVYUp_wd8PQ4mH_W-20" value="&lt;font style=&quot;font-size: 8px&quot;&gt;Next&lt;/font&gt;" style="rounded=0;whiteSpace=wrap;html=1;fontSize=10;fillColor=#d5e8d4;strokeColor=#82b366;" parent="1" vertex="1">
          <mxGeometry x="635" y="330" width="40" height="20" as="geometry" />
        </mxCell>
        <mxCell id="YxgOSVYUp_wd8PQ4mH_W-21" value="&lt;font style=&quot;font-size: 8px&quot;&gt;Relative Position:&amp;nbsp; &amp;nbsp;X, X, X&lt;br&gt;Total Traveled:&amp;nbsp;&amp;nbsp;&amp;nbsp;&amp;nbsp;&amp;nbsp;&amp;nbsp; XXXXX&lt;br&gt;Static Angle:&amp;nbsp; &amp;nbsp; &amp;nbsp; &amp;nbsp; &amp;nbsp; &amp;nbsp;X, X, X&lt;br&gt;&lt;br&gt;&lt;/font&gt;" style="rounded=0;whiteSpace=wrap;html=1;fontSize=10;align=left;horizontal=1;verticalAlign=top;fillColor=#dae8fc;strokeColor=none;" parent="1" vertex="1">
          <mxGeometry x="580" y="240" width="100" height="80" as="geometry" />
        </mxCell>
      </root>
    </mxGraphModel>
  </diagram>
</mxfile>
